<?xml version="1.0" encoding="UTF-8" standalone="no"?>
<!DOCTYPE svg PUBLIC "-//W3C//DTD SVG 1.1//EN"
 "http://www.w3.org/Graphics/SVG/1.1/DTD/svg11.dtd">
<!-- Generated by graphviz version 2.40.1 (20161225.0304)
 -->
<!-- Title: dependencies Pages: 1 -->
<svg width="886pt" height="211pt"
 viewBox="0.00 0.00 886.00 211.00" xmlns="http://www.w3.org/2000/svg" xmlns:xlink="http://www.w3.org/1999/xlink">
<g id="graph0" class="graph" transform="scale(1 1) rotate(0) translate(4 207)">
<title>dependencies</title>
<polygon fill="#ffffff" stroke="transparent" points="-4,4 -4,-207 882,-207 882,4 -4,4"/>
<text text-anchor="start" x="418.0091" y="-42.4" font-family="sans-serif" font-weight="bold" font-size="14.00" fill="#000000">Legend</text>
<polygon fill="#ffffb3" stroke="transparent" points="205,-10 205,-30 225,-30 225,-10 205,-10"/>
<text text-anchor="start" x="228.629" y="-15.4" font-family="sans-serif" font-size="14.00" fill="#000000"> &#160;Declarations</text>
<polygon fill="#8dd3c7" stroke="transparent" points="318,-10 318,-30 338,-30 338,-10 318,-10"/>
<text text-anchor="start" x="341.7251" y="-15.4" font-family="sans-serif" font-size="14.00" fill="#000000"> &#160;Module</text>
<polygon fill="#80b1d3" stroke="transparent" points="404,-10 404,-30 424,-30 424,-10 404,-10"/>
<text text-anchor="start" x="427.7812" y="-15.4" font-family="sans-serif" font-size="14.00" fill="#000000"> &#160;Bootstrap</text>
<polygon fill="#fdb462" stroke="transparent" points="501,-10 501,-30 521,-30 521,-10 501,-10"/>
<text text-anchor="start" x="524.6732" y="-15.4" font-family="sans-serif" font-size="14.00" fill="#000000"> &#160;Providers</text>
<polygon fill="#fb8072" stroke="transparent" points="597,-10 597,-30 617,-30 617,-10 597,-10"/>
<text text-anchor="start" x="620.7258" y="-15.4" font-family="sans-serif" font-size="14.00" fill="#000000"> &#160;Exports</text>
<g id="clust1" class="cluster">
<title>cluster_HomepageModule</title>
<polygon fill="none" stroke="#000000" stroke-dasharray="1,5" points="8,-70 8,-195 870,-195 870,-70 8,-70"/>
</g>
<g id="clust2" class="cluster">
<title>cluster_HomepageModule_declarations</title>
<polygon fill="none" stroke="#000000" points="704,-78 704,-130 862,-130 862,-78 704,-78"/>
</g>
<g id="clust4" class="cluster">
<title>cluster_HomepageModule_imports</title>
<polygon fill="none" stroke="#000000" points="16,-78 16,-130 696,-130 696,-78 16,-78"/>
</g>
<!-- HomepageComponent -->
<g id="node1" class="node">
<title>HomepageComponent</title>
<polygon fill="#ffffb3" stroke="#000000" points="853.9734,-122 712.0266,-122 712.0266,-86 853.9734,-86 853.9734,-122"/>
<text text-anchor="middle" x="783" y="-99.8" font-family="Times,serif" font-size="14.00" fill="#000000">HomepageComponent</text>
</g>
<!-- HomepageModule -->
<g id="node2" class="node">
<title>HomepageModule</title>
<polygon fill="#8dd3c7" stroke="#000000" points="470.191,-187 467.191,-191 446.191,-191 443.191,-187 349.809,-187 349.809,-151 470.191,-151 470.191,-187"/>
<text text-anchor="middle" x="410" y="-164.8" font-family="Times,serif" font-size="14.00" fill="#000000">HomepageModule</text>
</g>
<!-- HomepageComponent&#45;&gt;HomepageModule -->
<g id="edge1" class="edge">
<title>HomepageComponent&#45;&gt;HomepageModule</title>
<path fill="none" stroke="#000000" d="M783,-122.2843C783,-143.3211 783,-175 783,-175 783,-175 480.3435,-175 480.3435,-175"/>
<polygon fill="#000000" stroke="#000000" points="480.3435,-171.5001 470.3435,-175 480.3434,-178.5001 480.3435,-171.5001"/>
</g>
<!-- HeaderModule -->
<g id="node3" class="node">
<title>HeaderModule</title>
<polygon fill="#8dd3c7" stroke="#000000" points="687.9608,-122 684.9608,-126 663.9608,-126 660.9608,-122 588.0392,-122 588.0392,-86 687.9608,-86 687.9608,-122"/>
<text text-anchor="middle" x="638" y="-99.8" font-family="Times,serif" font-size="14.00" fill="#000000">HeaderModule</text>
</g>
<!-- HeaderModule&#45;&gt;HomepageModule -->
<g id="edge2" class="edge">
<title>HeaderModule&#45;&gt;HomepageModule</title>
<path fill="none" stroke="#000000" d="M638,-122.0225C638,-139.3734 638,-163 638,-163 638,-163 480.2026,-163 480.2026,-163"/>
<polygon fill="#000000" stroke="#000000" points="480.2026,-159.5001 470.2026,-163 480.2025,-166.5001 480.2026,-159.5001"/>
</g>
<!-- HomepageRoutingModule -->
<g id="node4" class="node">
<title>HomepageRoutingModule</title>
<polygon fill="#8dd3c7" stroke="#000000" points="569.8089,-122 566.8089,-126 545.8089,-126 542.8089,-122 404.1911,-122 404.1911,-86 569.8089,-86 569.8089,-122"/>
<text text-anchor="middle" x="487" y="-99.8" font-family="Times,serif" font-size="14.00" fill="#000000">HomepageRoutingModule</text>
</g>
<!-- HomepageRoutingModule&#45;&gt;HomepageModule -->
<g id="edge3" class="edge">
<title>HomepageRoutingModule&#45;&gt;HomepageModule</title>
<path fill="none" stroke="#000000" d="M437.2206,-122.1061C437.2206,-122.1061 437.2206,-140.991 437.2206,-140.991"/>
<polygon fill="#000000" stroke="#000000" points="433.7206,-140.9909 437.2206,-150.991 440.7206,-140.991 433.7206,-140.9909"/>
</g>
<!-- LoadingModule -->
<g id="node5" class="node">
<title>LoadingModule</title>
<polygon fill="#8dd3c7" stroke="#000000" points="386.2078,-122 383.2078,-126 362.2078,-126 359.2078,-122 279.7922,-122 279.7922,-86 386.2078,-86 386.2078,-122"/>
<text text-anchor="middle" x="333" y="-99.8" font-family="Times,serif" font-size="14.00" fill="#000000">LoadingModule</text>
</g>
<!-- LoadingModule&#45;&gt;HomepageModule -->
<g id="edge4" class="edge">
<title>LoadingModule&#45;&gt;HomepageModule</title>
<path fill="none" stroke="#000000" d="M368.0042,-122.1061C368.0042,-122.1061 368.0042,-140.991 368.0042,-140.991"/>
<polygon fill="#000000" stroke="#000000" points="364.5043,-140.9909 368.0042,-150.991 371.5043,-140.991 364.5043,-140.9909"/>
</g>
<!-- NewsCardModule -->
<g id="node6" class="node">
<title>NewsCardModule</title>
<polygon fill="#8dd3c7" stroke="#000000" points="262.1346,-122 259.1346,-126 238.1346,-126 235.1346,-122 143.8654,-122 143.8654,-86 262.1346,-86 262.1346,-122"/>
<text text-anchor="middle" x="203" y="-99.8" font-family="Times,serif" font-size="14.00" fill="#000000">NewsCardModule</text>
</g>
<!-- NewsCardModule&#45;&gt;HomepageModule -->
<g id="edge5" class="edge">
<title>NewsCardModule&#45;&gt;HomepageModule</title>
<path fill="none" stroke="#000000" d="M203,-122.0225C203,-139.3734 203,-163 203,-163 203,-163 339.849,-163 339.849,-163"/>
<polygon fill="#000000" stroke="#000000" points="339.849,-166.5001 349.849,-163 339.8489,-159.5001 339.849,-166.5001"/>
</g>
<!-- SidebarModule -->
<g id="node7" class="node">
<title>SidebarModule</title>
<polygon fill="#8dd3c7" stroke="#000000" points="126.3133,-122 123.3133,-126 102.3133,-126 99.3133,-122 23.6867,-122 23.6867,-86 126.3133,-86 126.3133,-122"/>
<text text-anchor="middle" x="75" y="-99.8" font-family="Times,serif" font-size="14.00" fill="#000000">SidebarModule</text>
</g>
<!-- SidebarModule&#45;&gt;HomepageModule -->
<g id="edge6" class="edge">
<title>SidebarModule&#45;&gt;HomepageModule</title>
<path fill="none" stroke="#000000" d="M75,-122.2843C75,-143.3211 75,-175 75,-175 75,-175 339.7218,-175 339.7218,-175"/>
<polygon fill="#000000" stroke="#000000" points="339.7218,-178.5001 349.7218,-175 339.7218,-171.5001 339.7218,-178.5001"/>
</g>
</g>
</svg>
