<?xml version="1.0" encoding="UTF-8" standalone="no"?>
<!DOCTYPE svg PUBLIC "-//W3C//DTD SVG 1.1//EN"
 "http://www.w3.org/Graphics/SVG/1.1/DTD/svg11.dtd">
<!-- Generated by graphviz version 2.40.1 (20161225.0304)
 -->
<!-- Title: dependencies Pages: 1 -->
<svg width="504pt" height="284pt"
 viewBox="0.00 0.00 504.00 284.00" xmlns="http://www.w3.org/2000/svg" xmlns:xlink="http://www.w3.org/1999/xlink">
<g id="graph0" class="graph" transform="scale(1 1) rotate(0) translate(4 280)">
<title>dependencies</title>
<polygon fill="#ffffff" stroke="transparent" points="-4,4 -4,-280 500,-280 500,4 -4,4"/>
<text text-anchor="start" x="227.0091" y="-42.4" font-family="sans-serif" font-weight="bold" font-size="14.00" fill="#000000">Legend</text>
<polygon fill="#ffffb3" stroke="transparent" points="14,-10 14,-30 34,-30 34,-10 14,-10"/>
<text text-anchor="start" x="37.629" y="-15.4" font-family="sans-serif" font-size="14.00" fill="#000000"> &#160;Declarations</text>
<polygon fill="#8dd3c7" stroke="transparent" points="127,-10 127,-30 147,-30 147,-10 127,-10"/>
<text text-anchor="start" x="150.7251" y="-15.4" font-family="sans-serif" font-size="14.00" fill="#000000"> &#160;Module</text>
<polygon fill="#80b1d3" stroke="transparent" points="213,-10 213,-30 233,-30 233,-10 213,-10"/>
<text text-anchor="start" x="236.7812" y="-15.4" font-family="sans-serif" font-size="14.00" fill="#000000"> &#160;Bootstrap</text>
<polygon fill="#fdb462" stroke="transparent" points="310,-10 310,-30 330,-30 330,-10 310,-10"/>
<text text-anchor="start" x="333.6732" y="-15.4" font-family="sans-serif" font-size="14.00" fill="#000000"> &#160;Providers</text>
<polygon fill="#fb8072" stroke="transparent" points="406,-10 406,-30 426,-30 426,-10 406,-10"/>
<text text-anchor="start" x="429.7258" y="-15.4" font-family="sans-serif" font-size="14.00" fill="#000000"> &#160;Exports</text>
<g id="clust1" class="cluster">
<title>cluster_NewsCardModule</title>
<polygon fill="none" stroke="#000000" stroke-dasharray="1,5" points="62,-70 62,-268 434,-268 434,-70 62,-70"/>
</g>
<g id="clust2" class="cluster">
<title>cluster_NewsCardModule_declarations</title>
<polygon fill="none" stroke="#000000" points="70,-78 70,-130 426,-130 426,-78 70,-78"/>
</g>
<g id="clust6" class="cluster">
<title>cluster_NewsCardModule_exports</title>
<polygon fill="none" stroke="#000000" points="158,-208 158,-260 318,-260 318,-208 158,-208"/>
</g>
<!-- CustomizePaginatorDirective -->
<g id="node1" class="node">
<title>CustomizePaginatorDirective</title>
<polygon fill="#ffffb3" stroke="#000000" points="417.619,-122 236.381,-122 236.381,-86 417.619,-86 417.619,-122"/>
<text text-anchor="middle" x="327" y="-99.8" font-family="Times,serif" font-size="14.00" fill="#000000">CustomizePaginatorDirective</text>
</g>
<!-- NewsCardModule -->
<g id="node3" class="node">
<title>NewsCardModule</title>
<polygon fill="#8dd3c7" stroke="#000000" points="297.1346,-187 294.1346,-191 273.1346,-191 270.1346,-187 178.8654,-187 178.8654,-151 297.1346,-151 297.1346,-187"/>
<text text-anchor="middle" x="238" y="-164.8" font-family="Times,serif" font-size="14.00" fill="#000000">NewsCardModule</text>
</g>
<!-- CustomizePaginatorDirective&#45;&gt;NewsCardModule -->
<g id="edge1" class="edge">
<title>CustomizePaginatorDirective&#45;&gt;NewsCardModule</title>
<path fill="none" stroke="#000000" d="M266.7539,-122.1061C266.7539,-122.1061 266.7539,-140.991 266.7539,-140.991"/>
<polygon fill="#000000" stroke="#000000" points="263.2539,-140.9909 266.7539,-150.991 270.2539,-140.991 263.2539,-140.9909"/>
</g>
<!-- NewsCardComponent -->
<g id="node2" class="node">
<title>NewsCardComponent</title>
<polygon fill="#ffffb3" stroke="#000000" points="218.4172,-122 77.5828,-122 77.5828,-86 218.4172,-86 218.4172,-122"/>
<text text-anchor="middle" x="148" y="-99.8" font-family="Times,serif" font-size="14.00" fill="#000000">NewsCardComponent</text>
</g>
<!-- NewsCardComponent&#45;&gt;NewsCardModule -->
<g id="edge2" class="edge">
<title>NewsCardComponent&#45;&gt;NewsCardModule</title>
<path fill="none" stroke="#000000" d="M198.4457,-122.1061C198.4457,-122.1061 198.4457,-140.991 198.4457,-140.991"/>
<polygon fill="#000000" stroke="#000000" points="194.9457,-140.9909 198.4457,-150.991 201.9457,-140.991 194.9457,-140.9909"/>
</g>
<!-- NewsCardComponent  -->
<g id="node4" class="node">
<title>NewsCardComponent </title>
<polygon fill="#fb8072" stroke="#000000" points="309.9166,-252 166.0834,-252 166.0834,-216 309.9166,-216 309.9166,-252"/>
<text text-anchor="middle" x="238" y="-229.8" font-family="Times,serif" font-size="14.00" fill="#000000">NewsCardComponent </text>
</g>
<!-- NewsCardModule&#45;&gt;NewsCardComponent  -->
<g id="edge3" class="edge">
<title>NewsCardModule&#45;&gt;NewsCardComponent </title>
<path fill="none" stroke="#000000" stroke-dasharray="5,2" d="M238,-187.1061C238,-187.1061 238,-205.991 238,-205.991"/>
<polygon fill="#000000" stroke="#000000" points="234.5001,-205.9909 238,-215.991 241.5001,-205.991 234.5001,-205.9909"/>
</g>
</g>
</svg>
